<svg height="682pt" viewBox="-129 -21 682 682.62136" width="682pt" xmlns="http://www.w3.org/2000/svg"><path d="m230.222656 384.296875h-18.75v-18.746094h18.75zm-31.25 0h-18.75v-18.746094h18.75zm0 0"/><path d="m214.597656 328.851562v-26.933593c42.332032-4.382813 76.078125-38.125 80.460938-80.464844h26.933594v-18.746094h-26.933594c-4.382813-42.332031-38.128906-76.078125-80.460938-80.464843v-26.929688h-18.75v26.929688c-42.335937 4.386718-76.078125 38.128906-80.460937 80.464843h-26.933594v18.746094h26.933594c4.382812 42.339844 38.125 76.082031 80.460937 80.464844v26.933593zm-80.316406-107.398437h24.484375v-18.746094h-24.484375c4.203125-31.980469 29.585938-57.363281 61.566406-61.570312v24.488281h18.75v-24.488281c31.980469 4.207031 57.363282 29.589843 61.566406 61.570312h-24.484374v18.746094h24.484374c-4.203124 31.980469-29.585937 57.367187-61.566406 61.574219v-24.484375h-18.75v24.484375c-31.980468-4.207032-57.363281-29.59375-61.566406-61.574219zm0 0"/><path d="m195.847656 202.707031h18.75v18.746094h-18.75zm0 0"/><path d="m348.421875 402.796875c45.703125-87.398437 68.882813-151.5625 68.882813-190.714844 0-116.941406-95.140626-212.082031-212.082032-212.082031-116.945312 0-212.082031 95.140625-212.082031 212.082031 0 113.519531 195.980469 404.101563 204.324219 416.421875l7.757812 11.453125c44.574219-65.792969 93.929688-145.867187 131.34375-214.90625l-16.484375-8.9375c-44.613281 82.324219-95.714843 161.234375-114.855469 190.21875-36.980468-56.042969-193.335937-298.6875-193.335937-394.25 0-106.605469 86.726563-193.332031 193.332031-193.332031 106.605469 0 193.332032 86.726562 193.332032 193.332031 0 35.585938-23.078126 98.53125-66.75 182.027344zm0 0"/></svg>